- 
http://www.Speed.Cd 
       
http://www.Speed.Cd      fast  and The Hottest Private Tracker on the net

(((--Submit for invite!!--)))

Please Seed back to make the speed Faster!!!

------------------nfo--------------------------
-[img]http://img851.imageshack.us/img851/3072/jljr9.jpg[/img]


[color=blue][size=5][b]X.2011.DVDRip.XVID.AC3.HQ.Hive-CM8[/b][/size][/color]


[b]Thx Hive

CM8 Doing It Right The First Time :D


Source: DVD-R


Encode:
here is the next quality movie
DVD had nice quality, was just interlaced
did the usual sharpness, brightness, rgb, denoise
looks like a interesting movie - enjoy!


Video: 720x304 @bitrate 1800 2pass
Audio: English AC3 5.1 @448
Sample: yes included[/b]


[url]http://www.imdb.com/title/tt1661099/[/url]


General
Complete name                    : X.2011.DVDRip.XVID.AC3.HQ.Hive-CM8.avi
Format                           : AVI
Format/Info                      : Audio Video Interleave
File size                        : 1.43 GiB
Duration                         : 1h 29mn
Overall bit rate                 : 2 280 Kbps
Writing application              : Nandub v1.0rc2
Writing library                  : Nandub build 1853/release

Video
ID                               : 0
Format                           : MPEG-4 Visual
Format profile                   : Advanced Simple@L5
Format settings, BVOP            : 1
Format settings, QPel            : Yes
Format settings, GMC             : No warppoints
Format settings, Matrix          : Default (H.263)
Muxing mode                      : Packed bitstream
Codec ID                         : XVID
Codec ID/Hint                    : XviD
Duration                         : 1h 29mn
Bit rate                         : 1 823 Kbps
Width                            : 720 pixels
Height                           : 304 pixels
Display aspect ratio             : 2.35:1
Frame rate                       : 23.976 fps
Color space                      : YUV
Chroma subsampling               : 4:2:0
Bit depth                        : 8 bits
Scan type                        : Progressive
Compression mode                 : Lossy
Bits/(Pixel*Frame)               : 0.347
Stream size                      : 1.14 GiB (80%)
Writing library                  : XviD 1.2.1 (UTC 2008-12-04)

Audio
ID                               : 1
Format                           : AC-3
Format/Info                      : Audio Coding 3
Mode extension                   : CM (complete main)
Codec ID                         : 2000
Duration                         : 1h 29mn
Bit rate mode                    : Constant
Bit rate                         : 448 Kbps
Channel(s)                       : 6 channels
Channel positions                : Front: L C R, Side: L R, LFE
Sampling rate                    : 48.0 KHz
Bit depth                        : 16 bits
Compression mode                 : Lossy
Stream size                      : 288 MiB (20%)
Alignment                        : Split accross interleaves
Interleave, duration             : 42 ms (1.00 video frame)
Interleave, preload duration     : 500 ms


Plot:
A jaded call-girl. A fledgling hooker. The night from hell. 'X' is a sizzling
adults-only thriller about love, chance, escape and the oldest profession
experienced by two women, on a night that will change their lives forever.


Cast:
Viva Bianca           ...   Holly Rowe
Wayne Blair           ...   Bob
Peter Docker          ...   Ligurian
Hanna Mangan Lawrence ...   Shay Ryan


[IMG]http://img709.imageshack.us/img709/4594/86455464.png[/IMG]
[img]http://img710.imageshack.us/img710/9189/23088478.png[/img]
[img]http://img709.imageshack.us/img709/1622/10258380.png[/img]
[img]http://img856.imageshack.us/img856/6195/76353200.png[/img]
[img]http://img850.imageshack.us/img850/1981/62621447.png[/img]
[img]http://img29.imageshack.us/img29/5408/21575104.png[/img]
[img]http://img835.imageshack.us/img835/3636/91079006.png[/img]
[img]http://img835.imageshack.us/img835/812/48030487.png[/img]



Greetz

ViSiON,SiC,SANTi,3LT0N,YanKeeS,MAGNET,THC,T0XiC,LKRG,FANTASIA-PLAY,FANTASIA-M,BHRG,FLAWL3SS,
D2U,WBZ,NOVA,Vik,Rapeseed,SAFC,goldadvance,MEMORY100,scumbag,KaN1vE,Unevano,Pinnz,Wayne
Mr Hive,cedrict wink,and all P2P groups
Great Work Guys :D

FYS

LOOKING FOR ANYTHING YOU WANT TO LOOK AND SOUND BETTER

CM8@hushmail.com